<svg xmlns="http://www.w3.org/2000/svg" viewBox="0 0 314.77 58.06"><defs><style>.cls-1{fill:#e8865c;}</style></defs><g id="Layer_2" data-name="Layer 2"><g id="Layer_1-2" data-name="Layer 1"><path id="Path_250" data-name="Path 250" d="M147.79,32.37c.58-2.52,1.23-5,1.73-7.57.92-4.64,1.81-9.29,2.59-14,.48-2.87.74-5.78,1.07-8.68a2.09,2.09,0,0,1,2-2.15h.14c1.44-.09,2,.41,2,1.89.1,3.18.22,6.36.3,9.53.31,12.76.64,25.52.87,38.28a6.37,6.37,0,0,1-1.1,3.22,2.36,2.36,0,0,1-1.92.67c-.4,0-.88-.76-1.07-1.27a6.45,6.45,0,0,1-.26-2q-.09-12-.15-23.93c0-.94,0-1.9,0-2.84l-.51-.08c-.4,1.55-.87,3.08-1.2,4.65-1,4.8-1.91,9.6-2.88,14.4a3.71,3.71,0,0,1-.63,1.42,2,2,0,0,1-2.72.66,2,2,0,0,1-.79-.91,6.4,6.4,0,0,1-.74-2.74c0-8.14-2.06-15.91-4.12-23.69,0-.14-.18-.25-.51-.67a14.34,14.34,0,0,0-.25,1.86q.18,10.71.4,21.43c.06,3,.15,6,.19,9a2.5,2.5,0,0,1-.22,1.27c-.38.62-1,1.65-1.35,1.59a3.08,3.08,0,0,1-2.14-1.33,8.41,8.41,0,0,1-.62-3.54c0-10.11.13-20.22.2-30.32,0-4.49.1-9,.05-13.46a1.75,1.75,0,0,1,1.6-1.88h0a2.06,2.06,0,0,1,1.73.9,47.4,47.4,0,0,1,2.82,7.68C144,16.9,145.45,24.1,147,31.28c.1.38.23.76.37,1.14Z"/><path id="Path_251" data-name="Path 251" d="M13.86,46.12c0-1.22,0-2.44,0-3.66a1.2,1.2,0,0,0-1-1.4h-.07c-1.83-.36-3.67-.68-5.5-1A1.11,1.11,0,0,0,6,40.82a1.55,1.55,0,0,0,0,.21c-.45,1.9-.84,3.82-1.31,5.71A30.39,30.39,0,0,1,3.5,50.48C3,51.79,1.87,51.22,1,51s-1.17-.81-.94-1.81c.92-4,1.8-8,2.59-12,.88-4.47,1.59-9,2.47-13.45,1-5.14,2.06-10.29,3.28-15.39a33.69,33.69,0,0,1,2.28-5.81,2,2,0,0,1,2.38-1.19,1.67,1.67,0,0,1,1.56,1.76s0,0,0,.06c.21,3.38.66,6.74,1,10.11.47,4.57,1,9.15,1.38,13.73s.77,9.45,1.11,14.17c.2,2.74.39,5.48.45,8.21.05,2-.8,2.69-2.6,2.63-1.39-.05-2-.6-2.07-2s0-2.61,0-3.92ZM11.67,12.66l-.3-.06a13.9,13.9,0,0,0-.6,1.75c-1,4.68-1.95,9.34-2.82,14-.44,2.34-.62,4.73-.93,7.09-.11.85.2,1.33,1.1,1.4,1.47.12,3,.24,4.41.4,1.08.12,1.39-.35,1.29-1.35q-.48-4.61-.88-9.21c-.4-4.36-.77-8.73-1.15-13.1,0-.31-.08-.63-.13-.95Z"/><path id="Path_252" data-name="Path 252" d="M197.18,16.66V3.19c0-1.56.44-2,1.72-1.94A1.93,1.93,0,0,1,201,3a1.86,1.86,0,0,1,0,.47c-.11,2.69-.16,5.4-.11,8.09.06,4.05.3,8.09.33,12.14,0,1.25.4,1.63,1.58,1.48,1.34-.17,2.69-.29,4-.39.9-.07.73-.72.72-1.25q-.09-7.77-.23-15.55c0-1.91,0-3.83-.08-5.75,0-.89.37-1.28,1.17-1a3.54,3.54,0,0,1,1.77,1.14,5.4,5.4,0,0,1,.65,2.46c.18,4.27.3,8.53.41,12.8q.47,16.2.87,32.39a3.14,3.14,0,0,1-.44,2,2.62,2.62,0,0,1-1.93.9c-.53-.06-1.12-.83-1.41-1.42a5,5,0,0,1-.19-1.93c-.07-5.4-.1-10.8-.2-16.2,0-1.74-.22-3.48-.31-5.22,0-.68-.26-1-1-1-1,0-2.09,0-3.13,0-1.71.07-1.87.19-1.78,1.95.15,3.17.4,6.34.58,9.51q.31,5.41.58,10.83a2.31,2.31,0,0,1-.18,1.27,2.46,2.46,0,0,1-1.27,1.11c-.34.06-1.06-.5-1.2-.91a34.08,34.08,0,0,1-1.28-5.18c-.39-2.8-.67-5.61-.81-8.44C197.71,30.45,197.47,23.62,197.18,16.66Z"/><path id="Path_253" data-name="Path 253" d="M72.7,40.89c.1,2.2.24,4.72.33,7.25a4.29,4.29,0,0,1-.23,2,3.53,3.53,0,0,1-1.7,1.67c-1,.33-1.65-.59-1.83-1.46a35.29,35.29,0,0,1-.84-5.79c-.09-3,.18-5.91.17-8.87-.06-8.32-.18-16.63-.27-24.95a8.15,8.15,0,0,1,.06-1.56,1.9,1.9,0,0,1,1.84-1.73,1.84,1.84,0,0,1,2,1.48,13.44,13.44,0,0,1,.45,3.34c-.07,4.79-.21,9.58-.38,14.37,0,1.14.29,1.72,1.48,1.73s2.18.08,3.27.14c.88,0,1.27-.29,1.22-1.22-.23-4.26-.42-8.52-.62-12.78-.08-1.87-.18-3.74-.2-5.61a1.9,1.9,0,0,1,1.72-2.06,1.61,1.61,0,0,1,.44,0c1.58,0,2,.45,2,2,.05,1.74.05,3.48.1,5.23Q82.38,31.76,83,49.39A2.3,2.3,0,0,1,81.11,52c-.92.15-1.7-.08-2-1.05a15.94,15.94,0,0,1-.8-3.67c-.11-4.69-.09-9.39-.09-14.09,0-1.68-.07-1.75-1.75-1.82A13,13,0,0,1,74.18,31c-1-.21-1.55-.08-1.52,1.18C72.75,35,72.7,37.78,72.7,40.89Z"/><path id="Path_254" data-name="Path 254" d="M61.58,31c-.19,3.64-.17,7.32-.64,10.93-.44,3.42-1.14,6.88-3.8,9.49a6.27,6.27,0,0,1-8.85.25,6.39,6.39,0,0,1-1-1.21,21.26,21.26,0,0,1-3.14-9.71,65.79,65.79,0,0,1-.56-7.94c0-5.33.13-10.68.5-16a32.85,32.85,0,0,1,1.65-7.46c.76-2.39,2.11-2.87,4.59-2.52,5.71.8,8.45,4.55,9.86,9.65C61.51,21.23,61.4,26.11,61.58,31ZM47.74,32.37l-.32,0c.39,3.53.68,7.09,1.22,10.6a25.49,25.49,0,0,0,1.6,5.61c.73,1.78,2.47,2,3.79.62a7.8,7.8,0,0,0,1.55-2.52,27,27,0,0,0,1.8-10.09c-.12-6.83-.46-13.64-.82-20.46a6.19,6.19,0,0,0-2.7-4.74c-2.35-1.72-4.7-.94-5.47,1.84a12.9,12.9,0,0,0-.62,3.32C47.71,21.84,47.74,27.11,47.74,32.37Z"/><path id="Path_255" data-name="Path 255" d="M97.59,7c2.58,0,2.94.49,3.16,3,.47,5.32,1.07,10.63,1.58,16,.36,3.77.57,7.56,1,11.31.37,3.16,1,6.28,1.46,9.42.19,1.2.44,2.4.53,3.61.11,1.52-.48,2.25-1.66,2.33A2.31,2.31,0,0,1,101,50.82a2.91,2.91,0,0,1,0-.31c-.17-1.6-.31-3.2-.44-4.8-.28-3.57-.27-3.58-3.75-4s-3.38-.44-3.83,3c-.23,1.76-.52,3.52-.89,5.26s-1.45,2.7-2.82,2.4a1.83,1.83,0,0,1-1.64-2,1.59,1.59,0,0,1,.08-.39c.73-3.22,1.56-6.42,2.24-9.65,1-4.46,1.94-8.91,2.67-13.41,1-5.92,1.63-11.9,2.52-17.83C95.36,7,95.51,7,97.59,7Zm.27,11L97.48,18a7.1,7.1,0,0,0-.32,1c-.54,3-1.08,5.9-1.57,8.87-.52,3.17-1,6.35-1.45,9.54,0,.43.3,1.27.6,1.34,1.42.35,2.88.5,4.45.74.34-7.4-.73-14.41-1.33-21.45Z"/><path id="Path_256" data-name="Path 256" class="cls-1" d="M253.49,40.47l-4-5-.46.35c.51.72,1,1.43,1.53,2.17a12.63,12.63,0,0,1,2.27,7.33c0,1.57-.33,2.33-2.4,2.86-3.47.88-6.52-.29-9.37-2.15A8.08,8.08,0,0,1,237.46,41c-1.15,2.42-2.13,4.76-4.75,5.76a31.53,31.53,0,0,0,2-2.46,30.47,30.47,0,0,0,1.57-2.86l-.35-.23c-.28.38-.57.75-.84,1.13a13.75,13.75,0,0,1-7,5.34,2.38,2.38,0,0,1-3.08-.85,10.86,10.86,0,0,1-1.59-3.64,11.74,11.74,0,0,1,.69-7.37,39.62,39.62,0,0,1,2.69-4.1c-2.07-.34-4.43-.62-6.17-2.49,2.15.78,4.26,1.75,6.64,1.31a17,17,0,0,1-7.16-3.5,14.56,14.56,0,0,1-1.62-1.71c-1.36-1.76-1.3-2.69.19-4.4,2.53-2.91,9.83-5.18,14.55-1.5-.54-2.45-1-4.8.26-7.1,0,2.15-.34,4.33.78,6.34A16.52,16.52,0,0,1,236,9.88c1.41-2.65,3.06-3.16,5.69-1.65,4,2.31,6.19,7.44,5.29,12.63a26.86,26.86,0,0,1,3.31-1.43,11.87,11.87,0,0,1,3.51-.35l-6,2.26.14.35a46.94,46.94,0,0,1,5.24-1,15.06,15.06,0,0,1,4.29.28c2.8.54,3.2,2.22,2.54,4.73a12.16,12.16,0,0,1-5.82,7.53,24.77,24.77,0,0,1-4.4,1.56C251.3,36.38,253.21,37.93,253.49,40.47Zm-15.74-9.91c-2.67.38-5.17.81-7.69,1.08a5.18,5.18,0,0,0-3.75,2.28c-1.21,1.59-.95,3.53-1.33,5.31a10.76,10.76,0,0,0,.7,6.11c.83,2.26,1.16,2.44,3,.55a102.46,102.46,0,0,0,6.76-8.1c1.62-2.12,1.9-4.73,2.35-7.23ZM239.2,28c1.83-1.75,3.5-3.55,5.39-5.1a4.26,4.26,0,0,0,1.76-4.23,22.73,22.73,0,0,0-1.5-4.24,11.61,11.61,0,0,0-5.34-5.86c-1-.57-1.55-.46-1.73.72-.33,2.2-.74,4.4-.95,6.61-.38,4.22,0,8.33,2.37,12.1Zm.31,2.87c-.44,2.6-.67,5-1.29,7.23a4.85,4.85,0,0,0,1.2,5c1.77,1.88,4.16,2.73,6.52,3.53a11,11,0,0,0,3.43.45c2.86,0,3.21-.6,1.71-3.07-1.69-2.77-3.6-5.4-5.3-8.15-1.48-2.41-3.9-3.46-6.27-5Zm-1.75-2c-.8-1.32-1.52-2.35-2.08-3.46a36.17,36.17,0,0,1-1.51-3.58,5.64,5.64,0,0,0-5.24-3.1c-1.42.23-2.84.48-4.25.77a11.23,11.23,0,0,0-6.54,4.14A14.07,14.07,0,0,0,220,24.75c3.11,1.34,6.23,2.67,9.38,3.92,2.67,1.06,5.39.45,8.37.12Zm21.37-6.43a12,12,0,0,0-2.68,0q-4.95,1.18-9.84,2.57c-2.6.73-4.32,2.71-6.19,4.41,2.29,1.22,4.5,2.28,6.59,3.54a4.55,4.55,0,0,0,4.85.28,20.64,20.64,0,0,0,3.61-2.91,10.81,10.81,0,0,0,3.66-7.92Z"/><path id="Path_257" data-name="Path 257" d="M171.84,21.48c.8-3.38,1.57-6.77,2.44-10.14a14.82,14.82,0,0,1,1.24-3,1.68,1.68,0,0,1,2.2-.9c1,.31,1,1.08,1,1.9,0,3.84-1.31,7.43-2.29,11.07a35,35,0,0,0-1.54,9.64c.08,6,0,12,0,18a14,14,0,0,1-.5,3.46,1.87,1.87,0,0,1-2.25,1.39l-.24-.07c-1-.28-1.21-1.15-1.17-2.37.17-4.68.25-9.38.26-14.07,0-1.64-.56-3.3-.45-4.93.2-2.8-1-5.15-1.87-7.64-1.58-4.38-3.09-8.78-4.65-13.16-.43-1.22.29-1.82,1.2-2.25a1.38,1.38,0,0,1,1.84.66,1.43,1.43,0,0,1,.08.22c1.15,2.71,2.21,5.46,3.23,8.23.49,1.31.8,2.69,1.2,4Z"/><path id="Path_258" data-name="Path 258" d="M303.73,22.4c-.17-3.08-.39-6.16-.46-9.25a14.61,14.61,0,0,1,.45-3.6,2.38,2.38,0,0,1,2.61-2,48.57,48.57,0,0,1,6.83,1.56,1.5,1.5,0,0,1,1.26,1.69,1.41,1.41,0,0,1-.14.44,2.33,2.33,0,0,1-2.6,1.44c-1-.26-2-.56-3-.82-.75-.19-1.12,0-1.15.9-.08,3.31-.23,6.61-.34,9.92-.06,2,.08,2.07,2,2.09a10.19,10.19,0,0,1,2.34.2A1.74,1.74,0,0,1,313,27v0a1.71,1.71,0,0,1-1.75,1.61,14.54,14.54,0,0,1-2.47-.08c-.75-.05-1.26.06-1.28,1-.08,5.92-.22,11.84-.31,17.77,0,1.85,0,1.86,1.92,1.86,1.23,0,2.45,0,3.67,0s1.89.42,2,1.6a2,2,0,0,1-1.82,2,23,23,0,0,1-2.75.08c-1.36,0-2.71,0-4.07,0a2.34,2.34,0,0,1-2.54-2.13,2.44,2.44,0,0,1,0-.27c-.09-7.05-.13-14.1-.17-21.15,0-2.31,0-4.62,0-6.92Z"/><path id="Path_259" data-name="Path 259" d="M31,20.45c0,3.26.08,6.53,0,9.79-.14,4.34-.45,8.67-.61,13A22.66,22.66,0,0,0,30.64,47c.22,1.58,1,2.15,2.57,2.16,1.14,0,2.28,0,3.4,0a2.28,2.28,0,0,1,2.27,1.47c.47,1.45-.91,2.66-2.64,2.38-1.29-.21-2.58-.47-3.87-.55a8,8,0,0,0-2.44.29c-2.3.54-3.51-.33-3.44-2.67.25-8.7.61-17.4.78-26.1.08-3.73-.27-7.47-.31-11.21a14.2,14.2,0,0,1,.56-3.72A1.87,1.87,0,0,1,29.6,7.48l.25,0c1.2.33,1.41,1.25,1.36,2.35-.16,3.52-.28,7-.41,10.56Z"/><path id="Path_260" data-name="Path 260" d="M117.17,50.2a13,13,0,0,1-4.12,7.66c-.34.33-1.17.14-1.77.19a5.2,5.2,0,0,1,.28-1.62c.6-1.1,1.4-2.09,2-3.2a1.44,1.44,0,0,0-.43-1.33,3.42,3.42,0,0,1-1.61-4c.36-.92,2.18-1.5,3.74-1.2C116.54,47,117.17,47.93,117.17,50.2Z"/><path id="Path_261" data-name="Path 261" d="M281.65,36.07c1.17-4.73,2.22-9.49,3.55-14.17s2.9-9.46,4.5-14.14c.61-1.77,1.41-2.12,2.83-1.87a1.85,1.85,0,0,1,1.74,1.94c.06,2.35.15,4.7.24,7.06.22,6.35.46,12.7.64,19.06.06,2-.16,3.92-.07,5.88.16,3.37.51,6.74.67,10.12a4.82,4.82,0,0,1-.59,2.57,2.34,2.34,0,0,1-1.85.88,2.4,2.4,0,0,1-1.63-1.21,6.52,6.52,0,0,1-.43-2.55c-.15-5-.23-10.1-.38-15.15-.06-1.87-.37-3.73-.4-5.6-.07-3.38,0-6.77,0-10.16l-.45-.06c-.41,1.7-.78,3.42-1.26,5.1-2,6.85-3.93,13.7-6,20.53-.34,1.13-.93,2.23-2.5,1.94-1.27-.24-2-1.34-2.21-2.87-.66-3.94-1.32-7.89-2.23-11.78-1.09-4.69-2.42-9.32-3.65-14l-.39-.05a8.16,8.16,0,0,0-.34,1.29c-.18,2.74-.4,5.47-.47,8.21-.2,7.1-.34,14.2-.48,21.3-.05,2.17-.59,3-2.22,3a2,2,0,0,1-2.25-1.6,1.84,1.84,0,0,1,0-.62c.12-4.27.24-8.54.48-12.8.38-6.61.87-13.21,1.28-19.81.13-2.22.2-4.44.26-6.66a4.74,4.74,0,0,0-.21-1.54A1.71,1.71,0,0,1,268.57,6a1.88,1.88,0,0,1,.3-.12c1.48-.62,2.15-.5,2.76.93,1.34,3.16,2.7,6.33,3.76,9.58,1.91,5.88,3.61,11.82,5.4,17.73.19.64.33,1.3.49,2Z"/></g></g></svg>