<svg xmlns="http://www.w3.org/2000/svg" width="21" height="24" viewBox="0 0 21 24">
  <path id="Path_235" data-name="Path 235" d="M329.689,294.571c1.69-2.888,3.095-5.784,4.949-8.336,2.535-3.491,5.4-6.734,8.155-10.051.477-.573,1.09-1.532,1.9-.691.257.266-.06,1.44-.431,1.96-1.406,1.972-2.866,3.916-4.446,5.743a47.021,47.021,0,0,0-7.38,12.651c-.28.659-.5,1.349-.845,1.972a2.193,2.193,0,0,1-3.887.294,78.247,78.247,0,0,1-3.843-7,2.166,2.166,0,0,1,.538-1.961,1.964,1.964,0,0,1,1.949-.049,12.076,12.076,0,0,1,2.11,2.81A24.824,24.824,0,0,1,329.689,294.571Z" transform="translate(-323.789 -275.161)" fill="#319ab2"/>
</svg>
