<svg xmlns="http://www.w3.org/2000/svg" width="196.141" height="188.5" viewBox="0 0 196.141 188.5">
  <path id="Path_220" data-name="Path 220" d="M583.864,311.784c-6.254-7.748-12.4-15.355-18.537-22.961l-2.126,1.605c2.357,3.31,4.8,6.567,7.053,9.945,6.8,10.176,10.559,21.215,10.38,33.628-.1,7.2-1.477,10.705-11.021,13.125-15.906,4.033-29.878-1.347-42.978-9.863-8.172-5.309-13.66-12.663-16.332-23.184-5.255,11.132-9.746,21.84-21.769,26.456,3.131-3.753,6.583-7.292,9.3-11.319,2.778-4.117,4.839-8.717,7.216-13.106l-1.613-1.032c-1.287,1.727-2.623,3.419-3.856,5.182-8.052,11.523-18.458,19.865-31.918,24.5-5.931,2.045-10.988,1.046-14.108-3.921-3.21-5.108-6.216-10.849-7.286-16.683-2.086-11.387-2.042-23.143,3.167-33.821,3.256-6.678,8.161-12.557,12.335-18.809-9.491-1.589-20.311-2.862-28.319-11.414,9.888,3.544,19.564,8.008,30.47,6.012-11.976-3.392-23.512-7.479-32.833-16.036a64.641,64.641,0,0,1-7.463-7.87c-6.233-8.047-5.934-12.354.883-20.2,11.612-13.364,45.121-23.776,66.776-6.9-2.5-11.221-4.589-22.024,1.182-32.569-.155,9.877-1.57,19.9,3.555,29.11-.641-14.081.991-27.589,7.723-40.257,6.452-12.145,14.04-14.5,26.125-7.542,18.393,10.591,28.4,34.1,24.259,57.947,5.28-2.357,10.048-5.13,15.192-6.6,5.168-1.483,10.711-1.673,16.082-1.589q-13.691,5.19-27.377,10.377l.649,1.591c8.009-1.589,15.96-3.832,24.048-4.552a70.887,70.887,0,0,1,19.67,1.29c12.834,2.512,14.662,10.214,11.656,21.7-3.924,15-13.323,26.755-26.7,34.563-5.88,3.43-13.032,4.69-20.194,7.137C573.8,293.021,582.574,300.139,583.864,311.784Zm-72.232-45.466c-12.221,1.749-23.708,3.707-35.274,4.94-7.626.812-12.81,4.644-17.212,10.455-5.535,7.3-4.34,16.178-6.1,24.346-2.083,9.652-.179,18.885,3.2,28.067,3.821,10.379,5.339,11.162,13.6,2.523,11.132-11.645,21.139-24.419,30.991-37.2C508.308,289.757,509.584,277.767,511.631,266.318Zm6.681-11.938c8.386-8.038,16.069-16.324,24.734-23.409,6.55-5.353,9.41-11.813,8.049-19.414-1.2-6.689-4.283-13.082-6.863-19.474-4.815-11.935-13.239-20.6-24.487-26.88-4.679-2.612-7.123-2.086-7.932,3.294-1.518,10.105-3.422,20.18-4.348,30.342C505.7,218.234,507.612,237.081,518.312,254.38Zm1.42,13.147c-2.034,11.922-3.063,22.79-5.91,33.164-2.5,9.117-.548,16.346,5.489,22.777,8.109,8.636,19.08,12.514,29.9,16.183a49.012,49.012,0,0,0,15.721,2.059c13.138-.062,14.741-2.724,7.835-14.056-7.734-12.7-16.53-24.754-24.311-37.428C541.7,279.212,530.6,274.359,519.732,267.526Zm-8.055-9.361c-3.693-6.072-6.974-10.8-9.546-15.881-2.678-5.293-4.793-10.885-6.933-16.433-3.134-8.12-15.447-15.572-24.034-14.2-6.521,1.043-13.03,2.191-19.5,3.514-12.134,2.485-21.717,8.978-29.992,19.021,3.232,2.083,5.7,4.2,8.56,5.429,14.29,6.146,28.6,12.253,43.06,17.994C485.547,262.478,498.02,259.678,511.677,258.165Zm98.056-29.492c-4.4,0-8.552-.766-12.3.136q-22.678,5.438-45.135,11.783c-11.93,3.362-19.827,12.422-28.4,20.259,10.5,5.564,20.639,10.434,30.242,16.2,7.466,4.484,15.037,5.442,22.239,1.3,6.088-3.5,11.425-8.495,16.593-13.361C603.093,255.469,609.364,243.935,609.733,228.673Z" transform="translate(-419.165 -159.991)"/>
</svg>
