<?xml version="1.0" standalone="no"?>
<!DOCTYPE svg PUBLIC "-//W3C//DTD SVG 20010904//EN"
 "http://www.w3.org/TR/2001/REC-SVG-20010904/DTD/svg10.dtd">
<svg version="1.0" xmlns="http://www.w3.org/2000/svg"
 width="784.000000pt" height="784.000000pt" viewBox="0 0 784.000000 784.000000"
 preserveAspectRatio="xMidYMid meet">
<metadata>
Created by potrace 1.11, written by Peter Selinger 2001-2013
</metadata>
<g transform="translate(0.000000,784.000000) scale(0.100000,-0.100000)"
fill="#000000" stroke="none">
<path d="M3825 7663 c-22 -7 -44 -15 -50 -17 -5 -2 -12 -3 -15 -3 -3 1 -34
-18 -69 -42 -78 -53 -191 -166 -191 -191 0 -6 -3 -10 -7 -10 -23 0 -160 -256
-222 -415 -16 -38 -32 -79 -36 -90 -5 -11 -9 -22 -10 -25 -1 -3 -10 -32 -20
-65 -11 -33 -20 -64 -20 -70 0 -5 -3 -14 -7 -20 -7 -12 -58 -237 -64 -285 -2
-19 -6 -42 -9 -50 -2 -8 -7 -44 -10 -80 -4 -36 -9 -73 -11 -83 -8 -44 -16
-237 -16 -407 l0 -185 -24 47 c-28 55 -80 207 -88 258 -3 19 -7 44 -10 55 -27
136 -32 268 -22 625 l4 165 -38 -80 c-21 -44 -36 -82 -34 -84 2 -2 0 -9 -5
-15 -15 -19 -45 -148 -60 -257 -8 -62 -7 -292 3 -374 10 -88 29 -205 36 -225
1 -3 2 -8 1 -13 -1 -6 6 -41 25 -122 7 -27 12 -53 18 -93 l5 -33 -37 29 c-163
127 -435 242 -680 287 -15 3 -36 7 -48 9 -132 27 -478 27 -639 1 -49 -8 -88
-14 -129 -21 -21 -3 -79 -17 -130 -30 -50 -14 -108 -29 -128 -35 -100 -25
-331 -123 -463 -196 -68 -38 -194 -122 -225 -150 -14 -13 -28 -23 -33 -23 -15
0 -173 -167 -231 -244 -61 -81 -107 -166 -125 -231 -43 -158 41 -348 264 -593
81 -89 241 -241 291 -278 14 -10 32 -25 39 -31 7 -7 57 -42 112 -78 54 -36
103 -69 108 -73 61 -42 302 -156 473 -223 12 -5 32 -13 45 -18 19 -9 124 -43
137 -46 3 -1 57 -18 120 -38 63 -20 131 -40 150 -45 l35 -9 -40 -9 c-50 -10
-259 -11 -340 -2 -129 15 -329 66 -485 122 -25 9 -52 19 -61 21 -9 2 -38 12
-65 23 -71 29 -214 80 -214 77 0 -15 192 -175 210 -175 5 0 15 -6 23 -14 20
-20 189 -99 277 -129 116 -40 267 -76 425 -101 195 -32 184 -28 172 -53 -6
-13 -13 -23 -17 -23 -4 0 -12 -10 -17 -23 -6 -13 -62 -95 -125 -182 -63 -88
-123 -175 -133 -192 -11 -18 -23 -33 -27 -33 -4 0 -8 -4 -8 -10 0 -5 -20 -40
-44 -77 -103 -160 -205 -398 -231 -542 -8 -46 -14 -72 -19 -89 -26 -92 -40
-469 -22 -632 23 -224 66 -423 113 -530 71 -163 204 -410 225 -418 4 -2 8 -10
8 -17 0 -17 117 -125 136 -125 8 0 14 -4 14 -8 0 -28 219 -49 305 -30 61 14
257 85 311 113 16 8 35 15 42 15 6 0 12 5 12 10 0 6 6 10 13 10 6 0 23 6 37
14 342 184 539 342 803 644 15 18 86 112 158 210 72 97 135 181 139 186 5 4
22 0 38 -9 22 -13 28 -23 24 -39 -3 -11 -8 -23 -11 -26 -5 -4 -137 -258 -165
-317 -6 -13 -14 -23 -18 -23 -5 0 -8 -5 -8 -11 0 -27 -163 -257 -251 -354 -28
-31 -153 -177 -178 -208 -12 -16 -9 -15 32 2 46 20 151 76 171 92 155 121 202
168 288 284 97 129 196 307 334 600 20 43 29 54 32 40 2 -11 10 -40 19 -65 8
-25 16 -52 18 -60 16 -70 108 -253 186 -371 71 -106 296 -339 327 -339 6 0 12
-4 14 -8 6 -16 197 -139 318 -205 222 -120 452 -215 615 -252 49 -11 164 -33
210 -40 59 -10 406 -15 420 -7 5 3 21 7 35 8 14 2 43 6 65 10 22 3 49 7 60 9
11 1 27 5 35 8 16 6 63 18 91 23 41 8 175 66 220 95 78 50 138 134 154 218 15
76 17 107 17 226 0 109 -7 270 -12 270 -1 0 -4 14 -6 30 -8 58 -17 120 -20
130 -1 6 -5 24 -8 40 -54 287 -220 646 -441 955 -58 82 -89 125 -110 158 -5 8
-17 23 -25 33 -22 26 -33 41 -52 71 -18 27 -18 27 19 57 21 17 40 31 44 31 3
0 44 -48 92 -107 47 -60 96 -121 109 -137 105 -130 134 -167 166 -205 20 -24
49 -60 64 -80 16 -20 37 -46 48 -59 10 -13 72 -88 137 -169 64 -80 119 -141
120 -136 3 9 -15 102 -31 164 -14 52 -66 166 -112 244 -58 99 -58 100 -160
224 -72 87 -91 108 -262 285 -94 98 -95 99 -71 112 13 7 33 13 45 14 11 0 25
5 32 12 7 7 12 9 12 5 0 -4 16 -1 35 7 20 9 36 15 38 15 1 -1 22 4 47 11 25 7
52 14 60 15 8 2 83 26 165 53 221 73 291 106 465 220 105 68 143 97 235 172
54 45 250 244 291 295 21 28 41 52 44 55 3 3 33 46 65 95 33 50 62 92 65 95
14 14 137 257 142 280 2 8 6 17 9 20 21 17 115 337 135 460 10 56 9 263 0 310
-13 64 -66 159 -120 213 -96 96 -240 155 -466 193 -14 2 -41 7 -60 10 -19 3
-51 8 -70 10 -19 2 -66 7 -105 11 -82 9 -461 9 -520 0 -22 -4 -62 -9 -90 -12
-50 -6 -79 -10 -125 -20 -14 -3 -52 -10 -85 -16 -66 -11 -232 -47 -396 -84
-58 -13 -121 -27 -140 -30 -19 -3 -42 -8 -51 -11 -12 -3 -22 4 -33 25 -15 30
-15 31 15 46 16 8 32 15 35 15 3 0 21 7 41 15 20 8 39 15 42 15 6 0 314 116
347 131 11 5 49 19 85 32 88 32 339 127 370 140 14 5 30 11 36 12 6 2 30 12
55 23 l44 21 -170 -5 c-93 -3 -181 -7 -195 -9 -14 -2 -45 -6 -70 -9 -25 -3
-56 -8 -70 -11 -14 -3 -34 -7 -46 -9 -97 -19 -263 -82 -464 -178 -74 -36 -152
-73 -173 -83 -32 -15 -40 -16 -47 -5 -5 8 -6 19 -2 25 7 11 8 17 18 100 19
162 18 443 -1 560 -4 22 -7 47 -7 55 0 8 -11 72 -24 142 -62 324 -203 649
-392 901 -46 61 -93 119 -104 129 -12 10 -19 18 -16 18 17 0 -167 170 -252
234 -30 22 -56 44 -58 49 -2 4 -10 7 -18 7 -8 0 -14 3 -14 8 0 7 -58 43 -64
39 -2 -1 -12 5 -22 13 -60 48 -251 133 -350 156 -58 13 -228 11 -269 -3z m120
-156 c112 -50 325 -181 325 -199 0 -4 5 -8 11 -8 10 0 65 -39 100 -70 9 -8 42
-37 74 -65 78 -68 172 -166 239 -250 31 -38 60 -75 66 -82 56 -68 175 -284
224 -403 32 -78 46 -110 56 -130 4 -9 26 -63 49 -120 23 -58 46 -114 51 -125
16 -33 82 -218 86 -244 3 -14 7 -28 10 -33 3 -4 7 -16 9 -26 1 -9 8 -35 13
-57 39 -148 34 -323 -11 -450 -16 -46 -59 -139 -67 -145 -4 -3 -14 -19 -23
-36 -19 -38 -150 -173 -237 -245 -35 -30 -70 -58 -76 -64 -119 -105 -165 -148
-267 -245 -66 -63 -230 -224 -365 -357 -276 -272 -245 -255 -300 -158 -162
287 -291 641 -343 940 -5 30 -13 80 -19 110 -5 31 -12 84 -15 118 -4 34 -9 80
-11 102 -3 22 -7 67 -9 100 -6 76 -6 491 0 565 2 30 6 91 9 135 3 44 8 96 11
115 2 19 7 66 10 103 4 37 8 76 10 86 2 10 6 42 10 72 4 30 8 63 10 74 5 38
17 120 21 145 2 14 7 43 10 65 3 22 8 51 10 65 3 14 7 39 9 55 5 36 16 102 21
130 3 18 9 55 20 135 3 19 7 42 9 50 2 8 7 35 10 60 26 191 41 238 88 283 38
34 100 36 172 4z m-1700 -1891 c46 -5 62 -8 113 -20 47 -11 174 -62 232 -93
153 -82 305 -215 386 -338 44 -66 45 -69 135 -300 34 -88 66 -164 70 -169 5
-6 9 -16 9 -23 0 -14 52 -128 120 -263 72 -144 140 -263 152 -268 4 -2 8 -8 8
-12 0 -9 70 -124 90 -147 5 -7 10 -15 10 -18 0 -2 28 -48 61 -100 34 -53 59
-99 55 -102 -7 -8 -8 -8 -91 -17 -33 -3 -76 -9 -95 -11 -19 -3 -55 -7 -80 -10
-25 -3 -79 -10 -120 -15 -75 -10 -123 -15 -235 -27 -109 -11 -560 -5 -560 7 0
1 -16 3 -35 6 -38 5 -156 32 -180 41 -8 3 -21 7 -27 9 -7 1 -46 15 -85 30 -40
16 -75 29 -78 29 -3 1 -16 7 -30 13 -14 6 -115 48 -225 92 -183 74 -366 149
-455 187 -19 8 -44 19 -55 23 -11 5 -40 17 -65 28 -25 10 -65 27 -90 37 -25
10 -69 29 -98 42 -29 13 -55 23 -57 23 -2 0 -28 11 -57 24 -29 13 -161 70
-293 126 -242 103 -375 168 -375 182 0 4 -6 8 -14 8 -8 0 -16 3 -18 8 -2 4
-40 32 -84 62 l-82 55 31 40 c34 43 233 244 282 285 87 71 127 102 197 149 42
28 81 51 86 51 6 0 12 4 14 8 4 10 228 125 228 117 0 -3 11 2 24 11 14 8 27
15 30 15 3 0 14 2 23 5 51 16 70 23 88 30 11 4 25 8 30 9 6 2 39 11 75 20 36
9 76 19 90 21 32 6 53 10 120 24 30 6 66 13 80 15 14 2 39 7 55 10 42 8 256
46 280 50 11 2 29 6 40 8 11 3 40 8 65 11 25 3 56 8 70 11 14 3 50 8 80 11 30
4 57 8 59 10 2 2 13 2 25 -1 12 -2 44 -6 71 -9z m5330 -679 l40 -2 -3 -70 c-1
-39 -5 -88 -7 -110 -3 -22 -7 -56 -9 -75 -7 -59 -36 -191 -58 -265 -12 -38
-22 -74 -24 -80 -8 -38 -122 -294 -135 -305 -3 -3 -14 -21 -24 -40 -102 -200
-377 -498 -731 -794 -250 -209 -429 -309 -609 -341 -109 -19 -357 10 -400 47
-5 4 -15 8 -23 8 -19 0 -134 56 -210 102 -34 21 -67 38 -72 38 -6 0 -10 5 -10
10 0 6 -4 10 -8 10 -10 0 -161 84 -179 100 -7 5 -16 10 -22 10 -5 0 -40 17
-78 38 -71 41 -223 120 -508 267 -174 90 -291 151 -308 162 -5 3 13 26 41 52
27 25 105 98 173 162 143 135 163 153 214 194 21 17 45 37 54 47 9 9 41 34 71
57 30 22 60 44 65 48 46 37 168 111 250 152 107 53 173 77 330 121 55 16 132
38 170 49 39 11 81 22 95 25 14 3 106 28 205 56 99 27 189 52 200 54 11 2 97
24 190 49 94 25 186 48 205 53 44 10 37 8 90 23 25 7 54 15 65 17 11 2 65 15
120 30 55 14 111 28 125 30 14 3 46 11 73 19 26 8 47 12 47 9 0 -3 8 0 18 5 9
5 34 12 56 15 21 4 41 8 45 11 4 2 30 7 57 11 27 3 51 8 53 10 4 3 246 -3 366
-9z m-3878 -1514 c-3 -5 -8 -24 -11 -43 -3 -19 -8 -45 -10 -57 -3 -11 -8 -43
-12 -70 -3 -26 -8 -57 -10 -68 -3 -11 -13 -67 -24 -125 -23 -123 -27 -146 -34
-168 -3 -9 -8 -35 -12 -57 -3 -22 -12 -58 -19 -80 -13 -41 -46 -152 -51 -170
-1 -5 -8 -23 -15 -40 -6 -16 -13 -35 -14 -41 -13 -59 -181 -357 -228 -406 -7
-7 -55 -68 -107 -135 -51 -68 -98 -123 -103 -123 -6 0 -8 -3 -4 -6 5 -5 -23
-44 -102 -139 -9 -11 -32 -40 -51 -65 -19 -25 -40 -52 -47 -60 -6 -8 -37 -45
-67 -82 -31 -36 -56 -69 -56 -72 0 -3 -10 -16 -22 -29 -13 -13 -39 -44 -59
-68 -21 -24 -54 -65 -75 -90 -22 -25 -50 -59 -64 -76 -39 -47 -113 -133 -140
-163 -14 -15 -50 -56 -80 -90 -171 -195 -427 -454 -459 -465 -11 -3 -21 -10
-21 -15 0 -8 -17 -14 -77 -29 -87 -23 -163 98 -279 445 -66 200 -110 406 -120
568 -3 45 -6 86 -6 91 -1 22 13 228 16 234 2 3 7 26 10 51 3 25 13 80 21 123
8 44 13 83 9 88 -3 5 -2 9 3 9 4 0 9 27 11 60 2 33 5 70 8 83 3 12 7 49 9 82
3 33 10 85 15 115 5 30 12 71 15 90 18 117 90 294 154 375 17 22 40 51 50 65
17 22 120 127 161 164 33 30 147 100 207 128 65 29 190 62 276 72 26 3 66 8
90 11 23 3 58 7 77 9 19 2 58 7 85 10 28 4 66 9 85 12 19 3 53 7 75 10 22 3
51 7 65 9 81 10 132 17 190 26 36 6 74 12 85 13 11 2 38 6 60 9 22 4 58 9 80
12 22 3 81 12 130 20 50 7 115 17 145 20 30 4 57 8 60 10 3 1 32 6 65 10 33 3
61 7 62 9 6 6 64 5 60 -1z m453 -118 c67 -41 123 -75 125 -75 2 0 51 -29 110
-65 58 -36 110 -65 115 -65 4 0 10 -3 12 -7 2 -5 44 -35 93 -67 237 -156 402
-310 523 -490 26 -39 50 -72 55 -74 4 -2 7 -8 7 -13 0 -8 32 -62 95 -159 12
-19 156 -237 320 -485 381 -576 386 -583 492 -755 157 -255 203 -360 199 -458
-3 -91 -74 -136 -251 -160 -95 -13 -521 -7 -555 8 -3 1 -8 2 -13 1 -4 -1 -42
6 -85 15 -42 9 -88 18 -102 21 -35 6 -356 116 -440 150 -8 4 -17 7 -20 8 -11
4 -70 28 -149 62 -189 81 -368 186 -505 295 -61 49 -189 168 -181 168 3 0 -8
12 -24 28 -78 76 -185 270 -205 374 -2 13 -8 41 -13 63 -10 42 -9 263 2 305 3
14 8 36 10 50 2 14 20 88 40 165 20 77 38 156 41 175 3 19 7 42 10 50 3 8 8
35 11 60 3 25 9 50 14 56 5 6 6 13 4 16 -3 3 -1 26 5 52 6 26 13 66 15 89 3
23 9 65 15 92 5 28 11 68 14 90 4 33 20 137 41 280 10 67 16 103 19 122 3 12
8 43 12 70 5 26 9 51 10 56 1 4 2 12 3 17 0 6 3 10 5 10 2 0 59 -34 126 -75z"/>
</g>
</svg>
