<svg xmlns="http://www.w3.org/2000/svg" width="21" height="21" viewBox="0 0 21 21">
  <path id="Path_225" data-name="Path 225" d="M-230.708,343.023l-.394-.45c.109-.047.2-.086.294-.127.183-.081.2-.165.078-.32-.043-.054-.084-.109-.132-.17.216-.022.22-.048.07-.311.154-.1.129-.2.123-.736.154.062.194-.029.234-.151a.57.57,0,0,1,.447-.409.42.42,0,0,0,.342-.3c.008-.024.015-.049.025-.073.2-.485.357-.539.783-.235.334.239.644.509.969.759a.361.361,0,0,0,.2.075c.219,0,.438-.02.672-.033,0,.028.006,0,0-.025-.047-.129,0-.179.126-.13s.254.125.385.176a1.652,1.652,0,0,0,.431.133.416.416,0,0,1,.381.243,1.28,1.28,0,0,0,.185.263c.393.455.786.909,1.187,1.357.227.253.472.491.7.741.1.106.178.227.266.341l-.042.046-.235-.154a.48.48,0,0,0,.278.372.83.83,0,0,1,.379.364,3.418,3.418,0,0,0,.279.361v-.232l.931.861-.048.051-.338-.31-.05.009c.013.05.01.114.041.148a3.533,3.533,0,0,0,.416.426c.212.168.36.422.659.481.04.008.088.083.1.132a.548.548,0,0,0,.4.452,1.5,1.5,0,0,1,.2.111c.891-.9,1.768-1.816,2.674-2.7.411-.4.877-.749,1.323-1.116a.4.4,0,0,1,.212-.083c.116-.007.186-.022.211-.16.01-.053.145-.084.249-.137,0-.142.089-.217.275-.213a.249.249,0,0,0,.176-.117.916.916,0,0,1,.459-.362,4.6,4.6,0,0,0,.382-.268.93.93,0,0,1,.368-.162c.283-.023.3-.042.367-.307.027-.1.178-.173.273-.258l.044.037-.136.225.025.026.487-.277.038.039-.519.588,1.216-.338c-.117.118-.138.26-.318.267-.06,0-.116.09-.161.16.156-.019.285-.234.454-.034l-.571.4.007.048h.645c-.069.082-.121.119-.135.167s-.019.158.01.175c.159.091.156.217.1.369l.165.042-.085.168a1.334,1.334,0,0,0,.348-.072c.319-.168.626-.358.941-.533a5.771,5.771,0,0,1,.74-.354c-.108.19-.113.421-.318.541-.041.024-.046.124-.048.19a.508.508,0,0,1-.253.446c-.193.118-.394.224-.575.357-.253.187-.491.392-.733.593-.074.061-.132.144-.211.2a11.623,11.623,0,0,0-1.908,1.941.974.974,0,0,0-.111.2c.232.021.3.111.256.309a.48.48,0,0,1-.059.161c-.058.086-.125.226-.2.23-.138.008-.274-.253-.241-.4,0-.018.018-.04.013-.054-.032-.087-.068-.173-.118-.3l-.292.708.289-.033c.028.124.04.208.066.287.038.118-.024.2-.15.19-.185-.017-.283.059-.237.22.039.136.032.236-.083.314-.137.093-.207-.048-.3-.095a.2.2,0,0,0-.026-.007c-.143.138.072.214.064.314-.094.087-.176.171-.269.243a.181.181,0,0,1-.133.024c-.165-.036-.242.012-.216.172.02.122,0,.182-.131.2-.111.013-.152.068-.125.186a.22.22,0,0,1-.046.182c-.194.173-.4.333-.643.53l.225.126.168-.14.031.022-.14.209.142.2-.023.028-.209-.163-.174.159c.2.172.4.331.586.5a.245.245,0,0,1,.087.181c-.025.127,0,.2.136.214.1.012.137.057.121.169-.029.189.03.226.225.19a.187.187,0,0,1,.129.042c.083.065.159.14.252.225l-.112.3.05.029a.487.487,0,0,1,.123-.072c.073-.018.184-.053.218-.02a.311.311,0,0,1,.084.239c-.036.212.024.3.226.282.129-.013.193.066.156.185-.025.08-.04.164-.07.291l-.285-.033.277.677.067,0a1.1,1.1,0,0,1,.028-.4,1.528,1.528,0,0,1,.3-.338.019.019,0,0,1,.018,0,2.494,2.494,0,0,1,.2.406.429.429,0,0,1-.054.263c-.013.029-.1.027-.185.047a.939.939,0,0,0,.111.213c.316.354.641.7.96,1.053a10.419,10.419,0,0,0,2.436,2.014.469.469,0,0,1,.261.507c-.01.072.085.17.152.236s.178.1.131.241c-.013.038.074.108.1.2a2.143,2.143,0,0,1-.336-.121c-.382-.212-.754-.443-1.138-.65a5.045,5.045,0,0,0-.577-.222l.1.207-.164.042a.271.271,0,0,1-.112.378c-.027.016-.023.112-.006.162s.069.086.132.16h-.63l-.021.053.567.4c-.133.131-.147.129-.439-.065.035.111.039.186.184.2.1.013.183.137.274.211l-.031.036-1.172-.325.524.586-.039.041-.531-.3.146.271c-.238-.043-.3-.1-.324-.3a.225.225,0,0,0-.272-.209.5.5,0,0,1-.518-.257.553.553,0,0,0-.271-.169.857.857,0,0,1-.508-.388.253.253,0,0,0-.185-.1c-.163-.006-.266-.052-.245-.244-.148-.011-.3-.011-.3-.212,0-.015-.061-.03-.094-.045a2.388,2.388,0,0,1-.438-.214,35.6,35.6,0,0,1-3.507-3.351c-.109-.11-.222-.216-.344-.334-.25.136-.559.206-.6.571-.006.053-.081.116-.138.143a3.4,3.4,0,0,0-1.046.909c-.022.025,0,.085,0,.157l.37-.338.062.064-.936.8-.013-.177c-.12.157-.207.285-.31.4a1.586,1.586,0,0,1-.309.291.714.714,0,0,0-.33.422l.238-.182.042.03a1.034,1.034,0,0,1-.112.2c-.249.277-.508.545-.757.822-.324.362-.643.729-.963,1.094-.093.106-.188.21-.277.319a2.33,2.33,0,0,0-.223.306.432.432,0,0,1-.352.23,2.394,2.394,0,0,0-.485.151c-.09.033-.169.1-.259.129a1.012,1.012,0,0,1-.22.028v-.155c-.232-.014-.469-.036-.705-.036a.39.39,0,0,0-.2.1c-.384.29-.763.587-1.15.873a.242.242,0,0,1-.392-.075,2.849,2.849,0,0,1-.206-.365.449.449,0,0,0-.341-.306.58.58,0,0,1-.457-.423c-.038-.119-.081-.2-.222-.139-.04-.253.091-.522-.127-.736.141-.27.138-.288-.078-.306l.145-.185c.114-.145.093-.228-.082-.307-.092-.042-.186-.081-.3-.13l.4-.457c-.138-.02-.214-.025-.286-.044a.132.132,0,0,1-.078-.066.085.085,0,0,1,.033-.078c.2-.059.267-.229.369-.385a2.832,2.832,0,0,1,.435-.431c.459-.441.923-.877,1.374-1.325.735-.729,1.453-1.475,2.2-2.2.373-.362.793-.676,1.179-1.027.508-.462,1-.937,1.524-1.425-.2-.224-.363-.414-.539-.59a8.113,8.113,0,0,0-.7-.659,34.2,34.2,0,0,1-2.983-2.8c-.587-.586-1.172-1.173-1.764-1.755-.233-.229-.483-.441-.722-.664-.026-.024-.031-.069-.055-.1q-.106-.129-.219-.251c-.04-.043-.086-.079-.129-.119.057-.028.114-.059.173-.082A1.568,1.568,0,0,1-230.708,343.023Zm13.648,7.017.195.208.157-.208-.16-.205Z" transform="translate(231.103 -339.55)" fill="#b10000"/>
</svg>
